<mxfile host="app.diagrams.net" agent="Mozilla/5.0 (Macintosh; Intel Mac OS X 10_15_7) AppleWebKit/605.1.15 (KHTML, like Gecko) Version/17.6 Safari/605.1.15" version="25.0.1">
  <diagram name="Page-1" id="gcOh2L13ghurHqlArtQZ">
    <mxGraphModel dx="816" dy="480" grid="1" gridSize="10" guides="1" tooltips="1" connect="1" arrows="1" fold="1" page="1" pageScale="1" pageWidth="827" pageHeight="1169" background="#ffffff" math="0" shadow="0">
      <root>
        <mxCell id="0" />
        <mxCell id="1" parent="0" />
        <mxCell id="pkoyU2fwOPBfZemE1w7x-3" style="edgeStyle=orthogonalEdgeStyle;rounded=0;orthogonalLoop=1;jettySize=auto;html=1;exitX=0.5;exitY=1;exitDx=0;exitDy=0;entryX=0.5;entryY=0;entryDx=0;entryDy=0;" edge="1" parent="1" source="pkoyU2fwOPBfZemE1w7x-1" target="pkoyU2fwOPBfZemE1w7x-2">
          <mxGeometry relative="1" as="geometry" />
        </mxCell>
        <mxCell id="pkoyU2fwOPBfZemE1w7x-1" value="" style="ellipse;whiteSpace=wrap;html=1;aspect=fixed;" vertex="1" parent="1">
          <mxGeometry x="400" y="80" width="40" height="40" as="geometry" />
        </mxCell>
        <mxCell id="pkoyU2fwOPBfZemE1w7x-5" style="edgeStyle=orthogonalEdgeStyle;rounded=0;orthogonalLoop=1;jettySize=auto;html=1;exitX=0.5;exitY=1;exitDx=0;exitDy=0;entryX=0.5;entryY=0;entryDx=0;entryDy=0;" edge="1" parent="1" source="pkoyU2fwOPBfZemE1w7x-2" target="pkoyU2fwOPBfZemE1w7x-4">
          <mxGeometry relative="1" as="geometry" />
        </mxCell>
        <mxCell id="pkoyU2fwOPBfZemE1w7x-2" value="Receive an integer n" style="rounded=1;whiteSpace=wrap;html=1;" vertex="1" parent="1">
          <mxGeometry x="360" y="160" width="120" height="40" as="geometry" />
        </mxCell>
        <mxCell id="pkoyU2fwOPBfZemE1w7x-7" style="edgeStyle=orthogonalEdgeStyle;rounded=0;orthogonalLoop=1;jettySize=auto;html=1;exitX=0.5;exitY=1;exitDx=0;exitDy=0;entryX=0.5;entryY=0;entryDx=0;entryDy=0;" edge="1" parent="1" source="pkoyU2fwOPBfZemE1w7x-4" target="pkoyU2fwOPBfZemE1w7x-6">
          <mxGeometry relative="1" as="geometry" />
        </mxCell>
        <mxCell id="pkoyU2fwOPBfZemE1w7x-4" value="Initialise a vector of dimension n with this rule:&lt;div&gt;A[i-1] = i * i - i + 1 where 1 &amp;lt;= i &amp;lt;= n&lt;/div&gt;" style="rounded=1;whiteSpace=wrap;html=1;" vertex="1" parent="1">
          <mxGeometry x="322.5" y="240" width="195" height="50" as="geometry" />
        </mxCell>
        <mxCell id="pkoyU2fwOPBfZemE1w7x-11" style="edgeStyle=orthogonalEdgeStyle;rounded=0;orthogonalLoop=1;jettySize=auto;html=1;exitX=0.5;exitY=1;exitDx=0;exitDy=0;entryX=0.5;entryY=0;entryDx=0;entryDy=0;" edge="1" parent="1" source="pkoyU2fwOPBfZemE1w7x-6" target="pkoyU2fwOPBfZemE1w7x-10">
          <mxGeometry relative="1" as="geometry" />
        </mxCell>
        <mxCell id="pkoyU2fwOPBfZemE1w7x-6" value="Initialise a counter equal to 0" style="rounded=1;whiteSpace=wrap;html=1;fontSize=11;" vertex="1" parent="1">
          <mxGeometry x="340" y="330" width="160" height="40" as="geometry" />
        </mxCell>
        <mxCell id="pkoyU2fwOPBfZemE1w7x-17" style="edgeStyle=orthogonalEdgeStyle;rounded=0;orthogonalLoop=1;jettySize=auto;html=1;exitX=0.5;exitY=1;exitDx=0;exitDy=0;entryX=0.5;entryY=0;entryDx=0;entryDy=0;" edge="1" parent="1" source="pkoyU2fwOPBfZemE1w7x-10" target="pkoyU2fwOPBfZemE1w7x-14">
          <mxGeometry relative="1" as="geometry" />
        </mxCell>
        <mxCell id="pkoyU2fwOPBfZemE1w7x-10" value="Iterate over each triple of A and increase the counter by 1 if the sum of the triple is multiple of 3" style="rounded=1;whiteSpace=wrap;html=1;fontSize=11;" vertex="1" parent="1">
          <mxGeometry x="330" y="410" width="180" height="50" as="geometry" />
        </mxCell>
        <mxCell id="pkoyU2fwOPBfZemE1w7x-16" style="edgeStyle=orthogonalEdgeStyle;rounded=0;orthogonalLoop=1;jettySize=auto;html=1;exitX=0.5;exitY=1;exitDx=0;exitDy=0;entryX=0.5;entryY=0;entryDx=0;entryDy=0;" edge="1" parent="1" source="pkoyU2fwOPBfZemE1w7x-14" target="pkoyU2fwOPBfZemE1w7x-15">
          <mxGeometry relative="1" as="geometry" />
        </mxCell>
        <mxCell id="pkoyU2fwOPBfZemE1w7x-14" value="Return the counter" style="rounded=1;whiteSpace=wrap;html=1;fontSize=11;" vertex="1" parent="1">
          <mxGeometry x="340" y="500" width="160" height="40" as="geometry" />
        </mxCell>
        <mxCell id="pkoyU2fwOPBfZemE1w7x-15" value="" style="ellipse;whiteSpace=wrap;html=1;aspect=fixed;strokeWidth=3;" vertex="1" parent="1">
          <mxGeometry x="400" y="584.5" width="40" height="40" as="geometry" />
        </mxCell>
      </root>
    </mxGraphModel>
  </diagram>
</mxfile>